<?xml version="1.0" encoding="UTF-8"?>
<svg id="Layer_2" data-name="Layer 2" xmlns="http://www.w3.org/2000/svg" viewBox="0 0 34.22 31.02">
  <defs>
    <style>
      .cls-1 {
        opacity: .7;
      }

      .cls-2 {
        fill: #a37c52;
      }
    </style>
  </defs>
  <g id="Layer_1-2" data-name="Layer 1">
    <g class="cls-1">
      <path class="cls-2" d="M29.59,0H4.62C2.07,0,0,2.07,0,4.62V20.62c0,2.55,2.07,4.62,4.62,4.62H20.86l8.37,5.62c.15,.1,.32,.15,.5,.15,.14,0,.29-.03,.42-.1,.29-.16,.47-.46,.47-.79v-5.32c1.63-.69,3.59-2.18,3.59-4.18V4.62c0-2.55-2.07-4.62-4.62-4.62Zm2.84,20.62c0,1.05-1.56,2.27-2.97,2.71-.37,.12-.63,.46-.63,.85v4.27l-7.21-4.84c-.15-.1-.32-.15-.5-.15H4.62c-1.57,0-2.84-1.27-2.84-2.84V4.62c0-1.57,1.27-2.84,2.84-2.84H29.59c1.57,0,2.84,1.27,2.84,2.84V20.62Z"/>
      <path class="cls-2" d="M27.61,5.95H6.55c-.93,0-1.68,.75-1.68,1.68s.75,1.68,1.68,1.68H27.61c.93,0,1.68-.75,1.68-1.68s-.75-1.68-1.68-1.68Zm0,2.29H6.55c-.33,0-.61-.27-.61-.61s.27-.61,.61-.61H27.61c.33,0,.61,.27,.61,.61s-.27,.61-.61,.61Z"/>
      <path class="cls-2" d="M27.61,10.87H6.55c-.93,0-1.68,.75-1.68,1.68s.75,1.68,1.68,1.68H27.61c.93,0,1.68-.75,1.68-1.68s-.75-1.68-1.68-1.68Zm0,2.29H6.55c-.33,0-.61-.27-.61-.61s.27-.61,.61-.61H27.61c.33,0,.61,.27,.61,.61s-.27,.61-.61,.61Z"/>
      <path class="cls-2" d="M27.61,15.63H6.55c-.93,0-1.68,.75-1.68,1.68s.75,1.68,1.68,1.68H27.61c.93,0,1.68-.75,1.68-1.68s-.75-1.68-1.68-1.68Zm0,2.29H6.55c-.33,0-.61-.27-.61-.61s.27-.61,.61-.61H27.61c.33,0,.61,.27,.61,.61s-.27,.61-.61,.61Z"/>
    </g>
  </g>
</svg>