<?xml version="1.0" encoding="UTF-8"?>
<svg id="Layer_2" data-name="Layer 2" xmlns="http://www.w3.org/2000/svg" viewBox="0 0 28.33 34.77">
  <defs>
    <style>
      .cls-1 {
        opacity: .7;
      }

      .cls-2 {
        fill: #ffcb05;
        stroke: #a37c52;
        stroke-linecap: round;
        stroke-linejoin: round;
        stroke-width: 1.6px;
      }

      .cls-3 {
        fill: #ffe9c9;
      }

      .cls-4 {
        fill: #a37c52;
      }
    </style>
  </defs>
  <g id="Layer_1-2" data-name="Layer 1">
    <g class="cls-1">
      <g>
        <g>
          <path class="cls-3" d="M3.78,.89h12.77c1.59,0,2.89,1.29,2.89,2.89V23.49c0,1.59-1.29,2.89-2.89,2.89H3.78c-1.59,0-2.89-1.29-2.89-2.89V3.78C.89,2.19,2.19,.89,3.78,.89Z"/>
          <path class="cls-4" d="M16.54,1.78c1.1,0,2,.89,2,1.99V23.49c0,1.1-.89,2-2,2H3.78c-1.1,0-2-.89-2-2V3.78c0-1.1,.89-1.99,2-1.99h12.77m0-1.78H3.78C1.7,0,0,1.69,0,3.78V23.49c0,2.08,1.7,3.78,3.78,3.78h12.77c2.08,0,3.78-1.7,3.78-3.78V3.78c0-2.08-1.7-3.78-3.78-3.78h0Z"/>
        </g>
        <line class="cls-2" x1="6.22" y1="4.57" x2="14.29" y2="4.57"/>
        <line class="cls-2" x1="4.74" y1="20.44" x2="4.74" y2="8.56"/>
        <g>
          <g>
            <path class="cls-3" d="M11.79,33.88c-1.59,0-2.89-1.29-2.89-2.89V11.27c0-1.59,1.3-2.89,2.89-2.89h9.1c.24,0,.46,.09,.63,.26l5.67,5.67c.17,.17,.26,.39,.26,.63V30.99c0,1.59-1.3,2.89-2.89,2.89H11.79Z"/>
            <path class="cls-4" d="M20.89,9.28l5.67,5.67V30.99c0,1.1-.89,2-2,2H11.79c-1.1,0-2-.89-2-2V11.27c0-1.1,.89-1.99,2-1.99h9.1m0-1.78H11.79c-2.08,0-3.78,1.69-3.78,3.78V30.99c0,2.08,1.7,3.78,3.78,3.78h12.77c2.08,0,3.78-1.7,3.78-3.78V14.94c0-.47-.19-.93-.52-1.26l-5.67-5.67c-.33-.33-.79-.52-1.26-.52h0Z"/>
          </g>
          <path class="cls-4" d="M21.57,9.96l4.17,4.17h-2.19c-1.09,0-1.98-.89-1.98-1.98v-2.19m0-1.78c-.23,0-.46,.04-.68,.14-.67,.28-1.1,.93-1.1,1.65v2.19c0,2.07,1.69,3.76,3.76,3.76h2.19c.72,0,1.37-.43,1.65-1.1,.28-.67,.12-1.43-.39-1.94l-4.17-4.17c-.34-.34-.8-.52-1.26-.52h0Z"/>
          <line class="cls-2" x1="13.62" y1="17.93" x2="22.73" y2="17.93"/>
          <line class="cls-2" x1="13.62" y1="21.29" x2="22.73" y2="21.29"/>
          <line class="cls-2" x1="13.62" y1="24.65" x2="22.73" y2="24.65"/>
          <line class="cls-2" x1="13.62" y1="28.01" x2="22.73" y2="28.01"/>
        </g>
      </g>
      <line class="cls-2" x1="13.65" y1="11.6" x2="17.24" y2="11.6"/>
    </g>
  </g>
</svg>