<?xml version="1.0" encoding="UTF-8"?>
<svg id="Layer_2" data-name="Layer 2" xmlns="http://www.w3.org/2000/svg" viewBox="0 0 29.46 26.75">
  <defs>
    <style>
      .cls-1 {
        fill: none;
        stroke: #603a15;
        stroke-linecap: round;
        stroke-linejoin: round;
        stroke-width: 1.5px;
      }

      .cls-2 {
        fill: #603a15;
      }
    </style>
  </defs>
  <g id="Layer_1-2" data-name="Layer 1">
    <g>
      <path class="cls-2" d="M29.18,13.51l-6.21-5.96s0-.02,0-.03V2.12c0-.46-.37-.84-.84-.84s-.84,.37-.84,.84v3.83L15.35,.25c-.34-.33-.89-.33-1.23,0L.27,13.51c-.36,.34-.37,.91-.03,1.26,.34,.36,.9,.37,1.26,.03L14.73,2.13l13.22,12.67c.17,.17,.39,.25,.62,.25,.23,0,.47-.09,.64-.27,.34-.36,.33-.92-.03-1.26Z"/>
      <path class="cls-2" d="M23.98,26.75H5.48c-.49,0-.89-.4-.89-.89V14.82c0-.49,.4-.89,.89-.89s.89,.4,.89,.89v10.14H23.09V14.82c0-.49,.4-.89,.89-.89s.89,.4,.89,.89v11.03c0,.49-.4,.89-.89,.89Z"/>
      <path class="cls-1" d="M17.1,12.01c.07,.04,1.16,.43,1.9,.84s1.32,.86,1.37,1.35-.33,.74-.51,.85-1.23,.62-1.45,.78-.22,.16-.29,.43-.51,1.82-1,2.9-.87,1.09-1.09,1.1c-.24,0-.7-.1-1.11-.63s-1.05-1.49-1.61-1.66-1.27,.15-1.63,.29c-.19,.07-.63,.13-.89-.08s-.43-.66-.35-1.43,.35-1.82,.37-1.91,.02-.2-.21-.41-.67-.8-.76-1.26,.41-.8,.95-1,1.72-.51,1.87-.55c.32-.32,1.25-1.3,2.16-1.66s1.24-.24,1.54,.29,.61,1.56,.63,1.65c0,.03,.04,.1,.08,.13Z"/>
    </g>
  </g>
</svg>