<?xml version="1.0" encoding="UTF-8"?>
<svg id="Layer_2" data-name="Layer 2" xmlns="http://www.w3.org/2000/svg" viewBox="0 0 162.56 88.28">
  <defs>
    <style>
      .cls-1 {
        fill: #623701;
        fill-rule: evenodd;
      }

      .cls-2 {
        fill: #b19275;
      }
    </style>
  </defs>
  <g id="Layer_1-2" data-name="Layer 1">
    <g>
      <g>
        <path class="cls-2" d="M0,70.31V35.61H14.39c10.22,0,15.33,5.8,15.33,17.39s-5.3,17.31-15.89,17.31H0Zm10.07-2.87h2.64c2.42,0,4.1-1.05,5.03-3.14,.93-2.09,1.4-5.88,1.4-11.35s-.46-9.25-1.39-11.34c-.92-2.08-2.61-3.13-5.05-3.13h-2.64v28.96Z"/>
        <path class="cls-2" d="M49.93,35.61l9.66,34.7h-10.12l-2.06-7.53h-10.45l-2.21,7.53h-3.94l10.27-34.7h8.85Zm-11.98,23.69h8.52l-4.09-15.38-4.43,15.38Z"/>
        <polygon class="cls-2" points="89.04 35.61 80.37 46.57 93.15 70.31 81.94 70.31 73.81 55.11 72.36 56.74 72.36 70.31 62.29 70.31 62.29 35.61 72.36 35.61 72.36 51.07 84.31 35.61 89.04 35.61"/>
        <path class="cls-2" d="M111.51,35.61l9.66,34.7h-10.12l-2.06-7.53h-10.45l-2.21,7.53h-3.94l10.27-34.7h8.85Zm-11.97,23.69h8.52l-4.09-15.38-4.43,15.38Z"/>
        <path class="cls-2" d="M146.57,45.32h-4.87c-.16-4.03-1.95-7.53-6.85-7.53-3.86,0-5.8,1.39-5.8,4.17,0,2.09,2.16,3.87,6.48,5.36,8.34,2.86,12.51,7.1,12.51,12.71,0,3.29-1.17,5.93-3.51,7.92-2.34,1.99-5.45,2.99-9.33,2.99-8.59,0-12.89-3.33-12.89-9.99,0-.54,.04-1.1,.13-1.9h4.39c-.05,.75-.1,1.58-.1,2.66,0,4.31,2.47,6.46,7.4,6.46,3.95,0,5.92-1.55,5.92-4.65,0-2.31-2.37-4.33-7.09-6.08-6.83-2.51-10.25-6.52-10.25-12.03,0-3.12,1.14-5.63,3.42-7.54,2.28-1.91,5.28-2.86,8.99-2.86,7.63,0,11.44,3.43,11.44,10.3"/>
        <rect class="cls-2" x="152.49" y="35.61" width="10.07" height="34.7"/>
      </g>
      <g>
        <g>
          <path class="cls-1" d="M102.16,2.74h0c8.07,.01,12.1,.02,20.17,.04-.03,9.2-.04,13.8-.07,22.99,0,.25-.09,.46-.28,.62-.17,.18-.38,.25-.63,.27-1.84-.02-2.77-.02-4.63-.03-.01,.94-.01,1.41-.02,2.34,3.55,0,5.33,.02,8.88,.03,.65,0,1.24-.17,1.78-.47,.51-.32,.94-.74,1.24-1.26,.32-.53,.48-1.11,.46-1.75,.05-10.15,.07-15.24,.12-25.39-10.81-.05-16.21-.06-27-.08,0,1.08,0,1.6,0,2.68h0Z"/>
          <path class="cls-1" d="M102.17,10.49v-2.89c7.51,0,11.26,.02,18.76,.04-.01,1.16,0,1.74,0,2.9-7.51-.02-11.25-.03-18.76-.05h0Z"/>
          <path class="cls-1" d="M102.16,14.65c-.03,4.44-.02,6.65-.03,11.1,5.73,.01,8.58,.02,14.31,.03,.65,.02,1.26-.15,1.77-.46,.53-.3,.96-.72,1.26-1.25,.32-.53,.49-1.12,.48-1.76,.02-3.06,.02-4.58,.03-7.65-7.14,0-10.71-.02-17.83-.02Zm10.94,7.94c0,.25-.08,.46-.24,.62-.18,.16-.37,.24-.61,.24-1.32,0-1.97,0-3.29-.02,0-2.57,0-3.87,.02-6.45,1.65,0,2.49,0,4.15,.01,0,2.24,0,3.36-.02,5.6Z"/>
        </g>
        <g>
          <path class="cls-1" d="M68.08,10.47h0c2.45,0,3.67,.01,6.11,.03,0,7.4-.04,11.09-.04,18.5,2.91,0,4.36,0,7.28,.01,.02-7.39,.02-11.1,.05-18.49,6.1,.02,9.14,.03,15.24,.06,0-1.16,.03-1.74,.04-2.89-6.11-.04-9.15-.03-15.25-.05-.01-1,0-1.49,.01-2.49,6.09,.02,9.13,.03,15.23,.06,0-1.07,0-1.61,.02-2.67-6.08-.03-9.14-.03-15.24-.06,.02-.97,.03-1.47,.03-2.45-2.92,0-4.38-.02-7.29-.03-.03,3.04-.04,4.57-.04,7.6-2.44,0-3.67,0-6.12,0,0,1.15,0,1.72,0,2.88h0Z"/>
          <path class="cls-1" d="M83.63,14.41c3.27,0,4.91,.01,8.18,.02,1.31,5.82,1.96,8.74,3.26,14.56-3.27-.02-4.91-.03-8.18-.04-1.31-5.82-1.96-8.72-3.26-14.54h0Z"/>
        </g>
        <path class="cls-1" d="M44.23,.05h0c.01,2.89,.02,4.34,.02,7.23-4.34,.02-6.51,.04-10.87,.06,.01,1.29,.02,1.94,.02,3.23,4-.02,6-.03,9.99-.05-3.98,7.41-5.97,11.12-9.94,18.52,3.02-.02,4.54-.03,7.56-.04,2.77-5.07,4.16-7.62,6.93-12.68,2.84,5.05,4.25,7.58,7.08,12.63,3.03-.01,4.54,0,7.57-.02-4.06-7.38-6.08-11.06-10.13-18.43,4-.01,6-.01,10.02-.03,0-1.28,0-1.93-.01-3.23-4.35,.02-6.53,.02-10.9,.03,0-2.89,0-4.35-.01-7.24-2.93,0-4.4,.02-7.33,.03h0Z"/>
      </g>
      <g>
        <path class="cls-2" d="M55.24,81.65c-.15-.19-.36-.33-.62-.43-.26-.09-.51-.14-.74-.14-.14,0-.28,.02-.42,.05-.14,.03-.28,.08-.41,.15-.13,.07-.23,.16-.31,.27-.08,.11-.12,.25-.12,.41,0,.26,.1,.45,.29,.59,.19,.14,.43,.25,.73,.35,.29,.1,.61,.19,.94,.29,.34,.1,.65,.23,.94,.41,.29,.18,.53,.41,.73,.71,.19,.3,.29,.69,.29,1.19s-.09,.88-.26,1.24c-.18,.35-.41,.64-.71,.88-.3,.23-.65,.4-1.04,.52s-.81,.17-1.25,.17c-.55,0-1.06-.08-1.54-.25-.47-.17-.91-.44-1.32-.82l1.33-1.46c.19,.26,.43,.45,.73,.59,.29,.14,.59,.21,.91,.21,.15,0,.31-.02,.46-.05,.16-.04,.3-.09,.42-.16,.12-.07,.22-.16,.3-.28,.08-.11,.11-.24,.11-.4,0-.26-.1-.46-.29-.61-.2-.15-.44-.27-.74-.38-.3-.1-.62-.21-.96-.31-.34-.1-.66-.24-.96-.42-.3-.18-.54-.41-.74-.7-.2-.29-.29-.67-.29-1.14s.09-.86,.27-1.2c.18-.34,.42-.63,.72-.86,.3-.23,.65-.41,1.04-.52,.39-.12,.8-.17,1.21-.17,.48,0,.94,.07,1.39,.2,.45,.14,.85,.36,1.21,.68l-1.28,1.4Z"/>
        <path class="cls-2" d="M57.91,79.57h1.87v8.49h-1.87v-8.49Z"/>
        <path class="cls-2" d="M61.48,79.57h2.54l3.61,5.9h.02v-5.9h1.87v8.49h-2.45l-3.71-6.05h-.02v6.05h-1.87v-8.49Z"/>
        <path class="cls-2" d="M76.81,81.78c-.18-.22-.41-.4-.68-.52-.27-.12-.58-.18-.93-.18s-.68,.07-.98,.2c-.3,.14-.56,.33-.78,.57-.22,.24-.39,.53-.52,.87-.12,.34-.19,.7-.19,1.09s.06,.77,.19,1.1c.12,.33,.29,.62,.51,.86,.22,.24,.47,.43,.76,.57,.29,.14,.61,.2,.94,.2,.38,0,.72-.08,1.02-.24,.3-.16,.54-.38,.73-.67l1.56,1.16c-.36,.5-.82,.88-1.37,1.12-.55,.24-1.12,.36-1.7,.36-.66,0-1.28-.1-1.84-.31-.56-.21-1.04-.51-1.45-.89-.41-.39-.73-.86-.95-1.41-.23-.55-.34-1.17-.34-1.85s.11-1.3,.34-1.85c.23-.55,.55-1.02,.95-1.41,.41-.39,.89-.69,1.45-.89,.56-.21,1.17-.31,1.84-.31,.24,0,.49,.02,.75,.07,.26,.04,.52,.11,.77,.21s.49,.22,.73,.38c.23,.16,.44,.36,.62,.59l-1.44,1.18Z"/>
        <path class="cls-2" d="M79.54,79.57h5.77v1.73h-3.9v1.58h3.68v1.73h-3.68v1.73h4.11v1.73h-5.99v-8.49Z"/>
        <path class="cls-2" d="M93.17,81.59l-1.7,1.5-1.02-1.18,2.77-2.34h1.68v8.49h-1.73v-6.48Z"/>
        <path class="cls-2" d="M100.47,85.03c-.1,.02-.19,.04-.29,.06-.1,.02-.2,.02-.3,.02-.4,0-.76-.07-1.09-.22-.33-.14-.61-.34-.84-.59-.23-.25-.41-.54-.54-.88-.13-.34-.19-.7-.19-1.09,0-.44,.08-.84,.25-1.19,.16-.36,.39-.66,.67-.92,.28-.26,.62-.45,1-.59,.38-.14,.8-.21,1.25-.21s.85,.07,1.24,.21c.39,.14,.72,.34,1.01,.59,.28,.26,.51,.56,.67,.92,.16,.36,.25,.75,.25,1.19,0,.3-.03,.58-.08,.83-.06,.25-.13,.49-.22,.71-.09,.22-.2,.44-.32,.64-.12,.2-.25,.41-.39,.63l-1.86,2.9h-2.2l1.99-3.03Zm-1.45-2.61c0,.38,.13,.7,.38,.95s.58,.38,.99,.38,.74-.13,.99-.38,.38-.57,.38-.95-.13-.7-.38-.95-.58-.38-.99-.38-.74,.13-.99,.38-.38,.57-.38,.95Z"/>
        <path class="cls-2" d="M107.58,85.03c-.1,.02-.19,.04-.29,.06-.1,.02-.2,.02-.3,.02-.4,0-.76-.07-1.09-.22-.33-.14-.61-.34-.84-.59-.23-.25-.41-.54-.54-.88-.13-.34-.19-.7-.19-1.09,0-.44,.08-.84,.25-1.19,.16-.36,.39-.66,.67-.92,.28-.26,.62-.45,1-.59,.38-.14,.8-.21,1.25-.21s.85,.07,1.24,.21c.39,.14,.72,.34,1.01,.59,.28,.26,.51,.56,.67,.92,.16,.36,.25,.75,.25,1.19,0,.3-.03,.58-.08,.83-.06,.25-.13,.49-.22,.71-.09,.22-.2,.44-.32,.64-.12,.2-.25,.41-.39,.63l-1.86,2.9h-2.2l1.99-3.03Zm-1.45-2.61c0,.38,.13,.7,.38,.95s.58,.38,.99,.38,.74-.13,.99-.38,.38-.57,.38-.95-.13-.7-.38-.95-.58-.38-.99-.38-.74,.13-.99,.38-.38,.57-.38,.95Z"/>
        <path class="cls-2" d="M111.41,83.82c0-.5,.05-1.02,.14-1.54,.09-.52,.26-.99,.49-1.42,.24-.42,.56-.77,.97-1.04,.41-.27,.93-.4,1.56-.4s1.15,.13,1.56,.4c.41,.27,.73,.61,.97,1.04,.24,.42,.4,.9,.49,1.42,.09,.52,.14,1.03,.14,1.54s-.05,1.02-.14,1.54c-.09,.52-.26,.99-.49,1.42-.24,.42-.56,.77-.97,1.04-.41,.27-.93,.4-1.56,.4s-1.15-.13-1.56-.4c-.41-.27-.73-.61-.97-1.04-.24-.42-.4-.9-.49-1.42s-.14-1.03-.14-1.54Zm1.8,0c0,.22,.01,.49,.03,.8,.02,.31,.07,.61,.16,.9,.09,.29,.22,.53,.4,.73,.18,.2,.43,.3,.76,.3s.57-.1,.76-.3c.18-.2,.32-.44,.41-.73,.09-.29,.14-.59,.16-.9,.02-.31,.03-.58,.03-.8s-.01-.49-.03-.8c-.02-.31-.07-.61-.16-.9-.09-.29-.22-.53-.41-.73-.18-.2-.44-.3-.76-.3s-.58,.1-.76,.3c-.18,.2-.31,.44-.4,.73-.09,.29-.14,.59-.16,.9-.02,.31-.03,.58-.03,.8Z"/>
      </g>
    </g>
  </g>
</svg>