<?xml version="1.0" encoding="UTF-8"?>
<svg id="Layer_2" data-name="Layer 2" xmlns="http://www.w3.org/2000/svg" viewBox="0 0 70.9 38.5">
  <defs>
    <style>
      .cls-1 {
        fill-rule: evenodd;
      }

      .cls-1, .cls-2 {
        fill: #623701;
      }
    </style>
  </defs>
  <g id="Layer_1-2" data-name="Layer 1">
    <g id="LOGO1">
      <g>
        <path class="cls-2" d="M0,30.67V15.53H6.28c4.46,0,6.69,2.53,6.69,7.58s-2.31,7.55-6.93,7.55H0Zm4.39-1.25h1.15c1.06,0,1.79-.46,2.2-1.37,.41-.91,.61-2.56,.61-4.95s-.2-4.04-.6-4.95c-.4-.91-1.14-1.36-2.2-1.36h-1.15v12.63Z"/>
        <path class="cls-2" d="M21.78,15.53l4.21,15.14h-4.41l-.9-3.28h-4.56l-.97,3.28h-1.72l4.48-15.14h3.86Zm-5.22,10.33h3.72l-1.79-6.71-1.93,6.71Z"/>
        <polygon class="cls-2" points="38.83 15.53 35.05 20.31 40.63 30.67 35.74 30.67 32.19 24.04 31.56 24.74 31.56 30.67 27.17 30.67 27.17 15.53 31.56 15.53 31.56 22.27 36.77 15.53 38.83 15.53"/>
        <path class="cls-2" d="M48.63,15.53l4.21,15.14h-4.41l-.9-3.28h-4.56l-.96,3.28h-1.72l4.48-15.14h3.86Zm-5.22,10.33h3.71l-1.78-6.71-1.93,6.71Z"/>
        <path class="cls-2" d="M63.93,19.77h-2.13c-.07-1.76-.85-3.28-2.99-3.28-1.69,0-2.53,.61-2.53,1.82,0,.91,.94,1.69,2.83,2.34,3.64,1.25,5.46,3.1,5.46,5.54,0,1.43-.51,2.59-1.53,3.45-1.02,.87-2.38,1.3-4.07,1.3-3.75,0-5.62-1.45-5.62-4.36,0-.24,.02-.48,.06-.83h1.92c-.02,.33-.04,.69-.04,1.16,0,1.88,1.08,2.82,3.23,2.82,1.72,0,2.58-.68,2.58-2.03,0-1.01-1.03-1.89-3.09-2.65-2.98-1.09-4.47-2.84-4.47-5.24,0-1.36,.5-2.46,1.49-3.29,.99-.83,2.3-1.25,3.92-1.25,3.33,0,4.99,1.5,4.99,4.49"/>
        <rect class="cls-2" x="66.51" y="15.53" width="4.39" height="15.14"/>
      </g>
      <g>
        <g>
          <path class="cls-1" d="M44.56,1.19h0c3.52,0,5.28,0,8.8,.02-.01,4.01-.02,6.02-.03,10.03,0,.11-.04,.2-.12,.27-.07,.08-.17,.11-.27,.12-.8,0-1.21,0-2.02-.01,0,.41,0,.62,0,1.02,1.55,0,2.32,0,3.87,.01,.29,0,.54-.07,.78-.21,.22-.14,.41-.32,.54-.55,.14-.23,.21-.49,.2-.76,.02-4.43,.03-6.65,.05-11.07-4.71-.02-7.07-.03-11.78-.03,0,.47,0,.7,0,1.17h0Z"/>
          <path class="cls-1" d="M44.56,4.58v-1.26c3.28,0,4.91,0,8.18,.02,0,.51,0,.76,0,1.26-3.27,0-4.91-.01-8.18-.02h0Z"/>
          <path class="cls-1" d="M44.56,6.39c-.01,1.94,0,2.9-.01,4.84,2.5,0,3.74,0,6.24,.02,.29,0,.55-.06,.77-.2,.23-.13,.42-.31,.55-.54,.14-.23,.21-.49,.21-.77,0-1.34,0-2,.01-3.34-3.12,0-4.67,0-7.78,0Zm4.77,3.47c0,.11-.04,.2-.11,.27-.08,.07-.16,.11-.27,.11-.57,0-.86,0-1.44,0,0-1.12,0-1.69,.01-2.81,.72,0,1.08,0,1.81,0,0,.98,0,1.46,0,2.44Z"/>
        </g>
        <g>
          <path class="cls-1" d="M29.69,4.57h0c1.07,0,1.6,0,2.66,.01,0,3.23-.02,4.84-.02,8.07,1.27,0,1.9,0,3.18,0,0-3.22,.01-4.84,.02-8.07,2.66,.01,3.99,.01,6.64,.03,0-.5,.01-.76,.02-1.26-2.66-.02-3.99-.01-6.65-.02,0-.43,0-.65,0-1.08,2.65,0,3.98,.01,6.64,.03V1.11c-2.65-.01-3.98-.01-6.64-.03,.01-.42,.01-.64,.01-1.07-1.27,0-1.91,0-3.18-.01-.01,1.33-.02,1.99-.02,3.32-1.07,0-1.6,0-2.67,0,0,.5,0,.75,0,1.26h0Z"/>
          <path class="cls-1" d="M36.48,6.28c1.43,0,2.14,0,3.57,.01,.57,2.54,.86,3.81,1.42,6.35-1.43,0-2.14-.01-3.57-.02-.57-2.54-.85-3.8-1.42-6.34h0Z"/>
        </g>
        <path class="cls-1" d="M19.29,.02h0c0,1.26,0,1.89,0,3.16-1.89,0-2.84,.02-4.74,.02,0,.56,0,.84,0,1.41,1.74,0,2.62-.01,4.36-.02-1.73,3.23-2.61,4.85-4.34,8.08,1.32,0,1.98-.01,3.3-.02,1.21-2.21,1.81-3.32,3.02-5.53,1.24,2.2,1.85,3.31,3.09,5.51,1.32,0,1.98,0,3.3,0-1.77-3.22-2.65-4.82-4.42-8.04,1.74,0,2.62,0,4.37-.01,0-.56,0-.84,0-1.41-1.9,0-2.85,0-4.75,.01,0-1.26,0-1.9,0-3.16-1.28,0-1.92,0-3.2,.01h0Z"/>
      </g>
      <g>
        <path class="cls-2" d="M24.09,35.61c-.07-.08-.16-.15-.27-.19-.11-.04-.22-.06-.32-.06-.06,0-.12,0-.18,.02-.06,.01-.12,.04-.18,.07-.06,.03-.1,.07-.14,.12-.03,.05-.05,.11-.05,.18,0,.11,.04,.2,.13,.26,.08,.06,.19,.11,.32,.15,.13,.04,.26,.08,.41,.13,.15,.04,.28,.1,.41,.18,.13,.08,.23,.18,.32,.31,.08,.13,.13,.3,.13,.52s-.04,.39-.12,.54c-.08,.15-.18,.28-.31,.38-.13,.1-.28,.18-.46,.22s-.35,.07-.55,.07c-.24,0-.46-.04-.67-.11-.21-.07-.4-.19-.58-.36l.58-.64c.08,.11,.19,.2,.32,.26,.13,.06,.26,.09,.4,.09,.07,0,.13,0,.2-.02,.07-.02,.13-.04,.18-.07,.05-.03,.1-.07,.13-.12,.03-.05,.05-.11,.05-.17,0-.11-.04-.2-.13-.26-.09-.06-.19-.12-.32-.16-.13-.05-.27-.09-.42-.14-.15-.05-.29-.11-.42-.18-.13-.08-.24-.18-.32-.3-.09-.13-.13-.29-.13-.5s.04-.37,.12-.52c.08-.15,.18-.28,.31-.38,.13-.1,.28-.18,.45-.23,.17-.05,.35-.08,.53-.08,.21,0,.41,.03,.61,.09,.2,.06,.37,.16,.53,.3l-.56,.61Z"/>
        <path class="cls-2" d="M25.26,34.71h.82v3.7h-.82v-3.7Z"/>
        <path class="cls-2" d="M26.81,34.71h1.11l1.57,2.57h.01v-2.57h.82v3.7h-1.07l-1.62-2.64h-.01v2.64h-.82v-3.7Z"/>
        <path class="cls-2" d="M33.5,35.67c-.08-.1-.18-.17-.3-.22-.12-.05-.25-.08-.41-.08s-.3,.03-.43,.09c-.13,.06-.24,.14-.34,.25-.1,.11-.17,.23-.22,.38-.05,.15-.08,.31-.08,.48s.03,.33,.08,.48c.05,.14,.13,.27,.22,.38,.09,.11,.2,.19,.33,.25,.13,.06,.26,.09,.41,.09,.17,0,.32-.03,.44-.1,.13-.07,.24-.17,.32-.29l.68,.51c-.16,.22-.36,.38-.6,.49-.24,.1-.49,.16-.74,.16-.29,0-.56-.05-.8-.14-.24-.09-.46-.22-.63-.39-.18-.17-.32-.37-.42-.61-.1-.24-.15-.51-.15-.81s.05-.56,.15-.81c.1-.24,.24-.45,.42-.61,.18-.17,.39-.3,.63-.39,.24-.09,.51-.14,.8-.14,.1,0,.21,0,.33,.03,.11,.02,.22,.05,.33,.09s.22,.1,.32,.17c.1,.07,.19,.16,.27,.26l-.63,.51Z"/>
        <path class="cls-2" d="M34.69,34.71h2.52v.75h-1.7v.69h1.61v.75h-1.61v.75h1.79v.75h-2.61v-3.7Z"/>
        <path class="cls-2" d="M40.64,35.58l-.74,.65-.44-.51,1.21-1.02h.73v3.7h-.75v-2.82Z"/>
        <path class="cls-2" d="M43.82,37.09s-.08,.02-.13,.03c-.04,0-.09,.01-.13,.01-.17,0-.33-.03-.48-.09-.14-.06-.27-.15-.37-.26-.1-.11-.18-.24-.24-.38-.06-.15-.08-.31-.08-.47,0-.19,.04-.37,.11-.52,.07-.16,.17-.29,.29-.4,.12-.11,.27-.2,.44-.26,.17-.06,.35-.09,.54-.09s.37,.03,.54,.09c.17,.06,.32,.15,.44,.26,.12,.11,.22,.25,.29,.4,.07,.16,.11,.33,.11,.52,0,.13-.01,.25-.04,.36-.02,.11-.06,.21-.1,.31-.04,.1-.09,.19-.14,.28-.05,.09-.11,.18-.17,.27l-.81,1.27h-.96l.87-1.32Zm-.63-1.14c0,.17,.05,.31,.16,.42s.25,.16,.43,.16,.32-.05,.43-.16,.16-.25,.16-.42-.05-.31-.16-.42-.25-.16-.43-.16-.32,.05-.43,.16-.16,.25-.16,.42Z"/>
        <path class="cls-2" d="M46.92,37.09s-.08,.02-.13,.03c-.04,0-.09,.01-.13,.01-.17,0-.33-.03-.48-.09-.14-.06-.27-.15-.37-.26-.1-.11-.18-.24-.24-.38-.06-.15-.08-.31-.08-.47,0-.19,.04-.37,.11-.52,.07-.16,.17-.29,.29-.4,.12-.11,.27-.2,.44-.26,.17-.06,.35-.09,.54-.09s.37,.03,.54,.09c.17,.06,.32,.15,.44,.26,.12,.11,.22,.25,.29,.4,.07,.16,.11,.33,.11,.52,0,.13-.01,.25-.04,.36-.02,.11-.06,.21-.1,.31-.04,.1-.09,.19-.14,.28-.05,.09-.11,.18-.17,.27l-.81,1.27h-.96l.87-1.32Zm-.63-1.14c0,.17,.05,.31,.16,.42s.25,.16,.43,.16,.32-.05,.43-.16,.16-.25,.16-.42-.05-.31-.16-.42-.25-.16-.43-.16-.32,.05-.43,.16-.16,.25-.16,.42Z"/>
        <path class="cls-2" d="M48.59,36.56c0-.22,.02-.44,.06-.67,.04-.23,.11-.43,.21-.62,.1-.18,.24-.34,.42-.45,.18-.12,.4-.18,.68-.18s.5,.06,.68,.18c.18,.12,.32,.27,.42,.45,.1,.18,.17,.39,.21,.62,.04,.23,.06,.45,.06,.67s-.02,.44-.06,.67c-.04,.23-.11,.43-.21,.62-.1,.18-.24,.34-.42,.45-.18,.12-.4,.18-.68,.18s-.5-.06-.68-.18c-.18-.12-.32-.27-.42-.45-.1-.18-.17-.39-.21-.62s-.06-.45-.06-.67Zm.78,0c0,.1,0,.21,.01,.35,0,.14,.03,.27,.07,.39,.04,.13,.1,.23,.18,.32,.08,.09,.19,.13,.33,.13s.25-.04,.33-.13c.08-.09,.14-.19,.18-.32,.04-.13,.06-.26,.07-.39,0-.14,.01-.25,.01-.35s0-.21-.01-.35c0-.14-.03-.27-.07-.39-.04-.13-.1-.23-.18-.32-.08-.09-.19-.13-.33-.13s-.25,.04-.33,.13c-.08,.09-.14,.19-.18,.32-.04,.13-.06,.26-.07,.39,0,.14-.01,.25-.01,.35Z"/>
      </g>
    </g>
  </g>
</svg>