<?xml version="1.0" encoding="UTF-8"?>
<svg id="Layer_2" data-name="Layer 2" xmlns="http://www.w3.org/2000/svg" viewBox="0 0 23.65 34.84">
  <defs>
    <style>
      .cls-1 {
        opacity: .7;
      }

      .cls-2, .cls-3 {
        fill: #a37c52;
      }

      .cls-3 {
        stroke: #a37c52;
        stroke-miterlimit: 10;
        stroke-width: .5px;
      }
    </style>
  </defs>
  <g id="Layer_1-2" data-name="Layer 1">
    <g class="cls-1">
      <path class="cls-2" d="M20.64,0H3.02C1.35,0,0,1.35,0,3.02V31.83c0,1.66,1.35,3.02,3.02,3.02H20.64c1.66,0,3.02-1.35,3.02-3.02V3.02c0-1.66-1.35-3.02-3.02-3.02Zm1.62,31.83c0,.89-.73,1.62-1.62,1.62H3.02c-.89,0-1.62-.73-1.62-1.62V3.02c0-.89,.73-1.62,1.62-1.62H20.64c.89,0,1.62,.73,1.62,1.62V31.83Z"/>
      <path class="cls-2" d="M11.83,2.13c.18,0,.32-.15,.32-.32s-.15-.32-.32-.32-.32,.14-.32,.32,.14,.32,.32,.32Z"/>
      <path class="cls-2" d="M10.61,3.44h2.43c.18,0,.32-.14,.32-.32s-.14-.32-.32-.32h-2.43c-.18,0-.32,.14-.32,.32s.14,.32,.32,.32Z"/>
      <path class="cls-2" d="M9.53,3.36c.14,0,.25-.11,.25-.25s-.11-.25-.25-.25-.25,.11-.25,.25,.11,.25,.25,.25Z"/>
      <path class="cls-2" d="M11.83,29.37c-1.09,0-1.97,.89-1.97,1.97s.88,1.97,1.97,1.97,1.97-.88,1.97-1.97-.89-1.97-1.97-1.97Zm0,3.24c-.7,0-1.27-.57-1.27-1.27s.57-1.27,1.27-1.27,1.27,.57,1.27,1.27-.57,1.27-1.27,1.27Z"/>
      <path class="cls-3" d="M20.09,4.13H3.56c-.19,0-.35,.16-.35,.35V28.97c0,.19,.16,.35,.35,.35H20.09c.19,0,.35-.16,.35-.35V4.48c0-.19-.16-.35-.35-.35Zm-.35,24.49H3.91V4.83h15.83V28.62Z"/>
    </g>
  </g>
</svg>