<?xml version="1.0" encoding="UTF-8"?>
<svg id="Layer_2" data-name="Layer 2" xmlns="http://www.w3.org/2000/svg" viewBox="0 0 349.4 410.61">
  <defs>
    <style>
      .cls-1 {
        fill: #fff;
      }

      .cls-2 {
        fill: none;
        stroke: #000;
        stroke-miterlimit: 10;
        stroke-width: 12px;
      }

      .cls-3 {
        fill: #ff9800;
      }
    </style>
  </defs>
  <g id="Tag">
    <path class="cls-2" d="M96.51,86.1c-4,7.85-5.39,14.55-3.23,19"/>
    <path class="cls-2" d="M224.29,9.1c-38.6-17.28-109.74,41.61-127.77,77"/>
    <g id="Layer_4" data-name="Layer 4">
      <path class="cls-3" d="M344.19,274.98c-54.44-74.82-108.88-149.64-163.33-224.46-4.8-6.59-12.3-10.69-20.44-11.17-34.16-1.99-68.31-3.99-102.47-5.98-12.68-.74-24.19,7.38-27.74,19.58C20.51,86.32,10.8,119.68,1.09,153.05c-2.39,8.22-.78,17.09,4.35,23.94,55.6,74.24,111.21,148.47,166.81,222.71,8.9,11.89,25.68,14.45,37.73,5.77,42.7-30.79,85.41-61.57,128.11-92.36,12.24-8.82,14.97-25.92,6.1-38.12ZM90.29,125.1c-11.05,0-20-8.73-20-19.5s8.95-19.5,20-19.5,20,8.73,20,19.5-8.95,19.5-20,19.5Z"/>
    </g>
    <path class="cls-2" d="M93.29,105.1c7.22,14.83,54.11,5.06,72,0,31.12-8.8,82.63-33.9,81-65-.66-12.5-9.88-25.57-22-31"/>
    <g id="_1" data-name="%1">
      <path class="cls-1" d="M212.26,319.75c-8.28,6.21-16.56,12.42-24.83,18.62-2.37,1.78-5.77,.15-5.86-2.82-1.57-51.32-3.15-102.63-4.72-153.95-.04-1.25,.56-2.43,1.59-3.13,8.27-5.69,16.55-11.38,24.82-17.07,2.39-1.64,5.65,0,5.74,2.91,1.58,50.8,3.16,101.59,4.73,152.39,.04,1.19-.51,2.33-1.46,3.04Z"/>
      <path class="cls-1" d="M252.29,224.6c-17.95,0-32.5,14.33-32.5,32s14.55,32,32.5,32,32.5-14.33,32.5-32-14.55-32-32.5-32Zm.46,43.92c-6.65,0-12.04-5.31-12.04-11.86s5.39-11.86,12.04-11.86,12.04,5.31,12.04,11.86-5.39,11.86-12.04,11.86Z"/>
      <path class="cls-1" d="M139.29,210.6c-17.95,0-32.5,14.33-32.5,32s14.55,32,32.5,32,32.5-14.33,32.5-32-14.55-32-32.5-32Zm-.08,43.78c-6.65,0-12.04-5.31-12.04-11.86s5.39-11.86,12.04-11.86,12.04,5.31,12.04,11.86-5.39,11.86-12.04,11.86Z"/>
    </g>
  </g>
</svg>