<?xml version="1.0" encoding="UTF-8"?>
<svg id="Layer_2" data-name="Layer 2" xmlns="http://www.w3.org/2000/svg" viewBox="0 0 492.11 523.32">
  <defs>
    <style>
      .cls-1 {
        fill: #fff;
      }

      .cls-2 {
        stroke: #ff8400;
      }

      .cls-2, .cls-3, .cls-4, .cls-5 {
        stroke-miterlimit: 10;
      }

      .cls-2, .cls-4 {
        stroke-width: 9px;
      }

      .cls-2, .cls-6 {
        fill: #ff9800;
      }

      .cls-7, .cls-8, .cls-3, .cls-5, .cls-9, .cls-10, .cls-11 {
        fill: none;
      }

      .cls-7, .cls-8, .cls-9, .cls-10, .cls-11 {
        stroke-linejoin: bevel;
      }

      .cls-7, .cls-8, .cls-10 {
        stroke: #000;
        stroke-width: 46px;
      }

      .cls-8 {
        stroke-dasharray: 0 0 4 4;
      }

      .cls-12, .cls-4 {
        fill: #ff8400;
      }

      .cls-3, .cls-5 {
        stroke: #39b54a;
      }

      .cls-13 {
        fill: #39b54a;
      }

      .cls-4 {
        stroke: #fbae17;
      }

      .cls-5 {
        stroke-linecap: square;
        stroke-width: 11px;
      }

      .cls-9, .cls-11 {
        stroke: #fff;
        stroke-linecap: round;
        stroke-width: 8px;
      }

      .cls-10 {
        stroke-dasharray: 0 0 6.35 6.35;
      }

      .cls-11 {
        stroke-dasharray: 0 0 17 17;
      }
    </style>
  </defs>
  <g id="Redeem_Coupon">
    <g id="_ใบหลัง" data-name="ใบหลัง">
      <path class="cls-12" d="M419.13,212.42l-127.47-131.2c-8.05-8.28-21.28-8.47-29.57-.43L77.63,260c2.72,3.01,4.61,6.85,5.28,11.11,1.66,10.59-7.2,20.75-17.51,21.9-6.25,.7-11.9-1.6-15.94-5.65L6.34,329.26c-8.28,8.05-8.47,21.28-.43,29.57l127.47,131.2c8.05,8.28,21.28,8.47,29.57,.43l42.88-41.66c-2.98-3.08-5.05-7.13-5.76-11.63-1.66-10.59,7.2-20.75,17.51-21.9,6.51-.73,12.36,1.81,16.42,6.17l184.7-179.45c8.28-8.05,8.47-21.28,.43-29.57Z"/>
      <path class="cls-4" d="M398.35,219.94l-110.89-116.47c-4.88-5.12-12.99-5.32-18.11-.44L103.72,260.71c2.41,2.91,4.07,6.51,4.69,10.46,.89,5.67-1.23,11.21-4.98,15.31l103.5,108.71c3.03-2.64,6.79-4.43,10.76-4.87,5.85-.65,11.16,1.33,15.12,4.9l165.09-157.17c5.12-4.88,5.32-12.99,.44-18.11Z"/>
      <ellipse class="cls-1" cx="250.01" cy="251.02" rx="48.15" ry="46.74" transform="translate(-26.29 29.27) rotate(-6.37)"/>
      <polygon class="cls-12" points="274.78 256.46 259.02 261.07 254.25 276.78 244.58 263.08 228.04 262.98 237.82 249.9 232.38 234.13 248.09 239.74 261.27 230.1 261.2 246.64 274.78 256.46"/>
    </g>
    <g id="_ใบหน้า" data-name="ใบหน้า">
      <path class="cls-6" d="M487.46,256.09l-118.77-153.07c-7.5-9.66-21.41-11.42-31.07-3.92L122.41,266.07c2.51,3.49,4.05,7.75,4.25,12.31,.51,11.34-10.02,21-21,21-6.66,0-12.34-3.08-16.11-7.82l-50.31,39.03c-9.66,7.5-11.42,21.41-3.92,31.07l118.77,153.07c7.5,9.66,21.41,11.42,31.07,3.92l50.03-38.82c-2.78-3.59-4.48-8.09-4.7-12.92-.51-11.34,10.02-21,21-21,6.94,0,12.79,3.35,16.56,8.43l215.49-167.19c9.66-7.5,11.42-21.41,3.92-31.07Z"/>
      <path class="cls-2" d="M464.71,261.57l-103.04-135.62c-4.53-5.97-13.04-7.13-19.01-2.59l-192.86,146.53c2.19,3.34,3.52,7.33,3.71,11.56,.27,6.07-2.62,11.65-7.04,15.54l96.17,126.58c3.49-2.42,7.66-3.86,11.9-3.86,6.23,0,11.59,2.71,15.34,6.94l192.23-146.05c5.97-4.53,7.13-13.04,2.59-19.01Z"/>
      <ellipse class="cls-1" cx="304.92" cy="276.87" rx="51" ry="49.5"/>
      <polygon class="cls-12" points="330.36 285.49 313.23 288.5 306.35 304.47 297.79 288.92 280.39 286.87 292.22 274.26 288.34 257.02 304.22 264.77 319.23 256.17 317.21 273.57 330.36 285.49"/>
      <g id="_ประ" data-name="ประ">
        <g>
          <line class="cls-9" x1="230.92" y1="435.37" x2="225.4" y2="428.26"/>
          <line class="cls-11" x1="214.96" y1="414.84" x2="136.67" y2="314.18"/>
          <line class="cls-9" x1="131.45" y1="307.47" x2="125.92" y2="300.37"/>
        </g>
      </g>
      <g id="barcode2">
        <g>
          <path class="cls-7" d="M194.42,481.87l-1.21-1.59"/>
          <path class="cls-8" d="M190.8,477.09c-36.65-48.34-73.31-96.69-109.96-145.03"/>
          <path class="cls-7" d="M79.63,330.46l-1.21-1.59"/>
        </g>
      </g>
      <g id="barcode1">
        <g>
          <path class="cls-7" d="M194.42,481.87c-.6-.8-1.21-1.59-1.81-2.39"/>
          <path class="cls-10" d="M188.77,474.42c-14.71-19.38-29.41-38.76-44.12-58.14"/>
          <path class="cls-7" d="M142.74,413.76c-.6-.8-1.21-1.59-1.81-2.39"/>
        </g>
      </g>
      <g id="barcode1-2" data-name="barcode1">
        <g>
          <path class="cls-7" d="M132.42,399.87c-.6-.8-1.21-1.59-1.81-2.39"/>
          <path class="cls-10" d="M126.77,392.42c-14.71-19.38-29.41-38.76-44.12-58.14"/>
          <path class="cls-7" d="M80.74,331.76c-.6-.8-1.21-1.59-1.81-2.39"/>
        </g>
      </g>
    </g>
    <g id="persen">
      <g>
        <polygon class="cls-13" points="210.42 198.87 197.92 207.95 208.11 219.56 193.9 225.63 201.23 239.23 186.02 241.96 190.13 256.86 174.7 256.14 175.41 271.58 160.52 267.47 157.78 282.68 144.18 275.35 138.12 289.56 126.5 279.37 117.42 291.87 108.34 279.37 96.73 289.56 90.66 275.34 77.06 282.67 74.33 267.47 59.43 271.58 60.14 256.14 44.71 256.86 48.82 241.96 33.61 239.23 40.94 225.63 26.73 219.56 36.92 207.95 24.42 198.87 36.92 189.79 26.73 178.17 40.95 172.11 33.62 158.5 48.82 155.77 44.71 140.88 60.15 141.59 59.43 126.16 74.33 130.27 77.06 115.06 90.66 122.39 96.73 108.18 108.34 118.37 117.42 105.87 126.5 118.37 138.12 108.18 144.18 122.39 157.79 115.06 160.52 130.27 175.41 126.16 174.7 141.59 190.13 140.88 186.02 155.77 201.23 158.51 193.9 172.11 208.11 178.17 197.92 189.79 210.42 198.87"/>
        <polygon class="cls-5" points="210.42 198.87 197.92 207.95 208.11 219.56 193.9 225.63 201.23 239.23 186.02 241.96 190.13 256.86 174.7 256.14 175.41 271.58 160.52 267.47 157.78 282.68 144.18 275.35 138.12 289.56 126.5 279.37 117.42 291.87 108.34 279.37 96.73 289.56 90.66 275.34 77.06 282.67 74.33 267.47 59.43 271.58 60.14 256.14 44.71 256.86 48.82 241.96 33.61 239.23 40.94 225.63 26.73 219.56 36.92 207.95 24.42 198.87 36.92 189.79 26.73 178.17 40.95 172.11 33.62 158.5 48.82 155.77 44.71 140.88 60.15 141.59 59.43 126.16 74.33 130.27 77.06 115.06 90.66 122.39 96.73 108.18 108.34 118.37 117.42 105.87 126.5 118.37 138.12 108.18 144.18 122.39 157.79 115.06 160.52 130.27 175.41 126.16 174.7 141.59 190.13 140.88 186.02 155.77 201.23 158.51 193.9 172.11 208.11 178.17 197.92 189.79 210.42 198.87"/>
      </g>
      <g id="Layer_7" data-name="Layer 7">
        <path class="cls-1" d="M105.69,232.94c-5.27-.02-10.55-.04-15.82-.06-1.51,0-2.39-1.71-1.52-2.95,15.12-21.35,30.25-42.7,45.37-64.05,.37-.52,.97-.81,1.61-.79,5.11,.23,10.22,.46,15.34,.69,1.48,.07,2.29,1.74,1.44,2.94-14.96,21.14-29.93,42.28-44.89,63.42-.35,.5-.92,.79-1.53,.79Z"/>
        <path class="cls-1" d="M151.19,206.54c-7.3-5.51-17.62-4.16-23.05,3.03-5.43,7.19-3.91,17.48,3.39,23s17.62,4.16,23.05-3.03,3.91-17.48-3.39-23Zm-13.31,18c-2.7-2.04-3.27-5.86-1.25-8.52s5.83-3.17,8.54-1.12,3.27,5.86,1.25,8.52-5.83,3.17-8.54,1.12Z"/>
        <path class="cls-1" d="M109.54,166.14c-7.3-5.51-17.62-4.16-23.05,3.03s-3.91,17.48,3.39,23c7.3,5.51,17.62,4.16,23.05-3.03,5.43-7.19,3.91-17.48-3.39-23Zm-13.48,17.78c-2.7-2.04-3.27-5.86-1.25-8.52s5.83-3.17,8.54-1.12,3.27,5.86,1.25,8.52-5.83,3.17-8.54,1.12Z"/>
        <path class="cls-3" d="M106.6,170.25c-5.03-3.8-12.13-2.86-15.87,2.09s-2.7,12.04,2.33,15.84c5.03,3.8,12.13,2.86,15.87-2.09s2.7-12.04-2.33-15.84Zm-9.29,12.24c-1.86-1.41-2.25-4.03-.86-5.87s4.02-2.18,5.88-.77,2.25,4.03,.86,5.87-4.02,2.18-5.88,.77Z"/>
        <path class="cls-3" d="M148.66,210.41c-5.03-3.8-12.13-2.86-15.87,2.09s-2.7,12.04,2.33,15.84c5.03,3.8,12.13,2.86,15.87-2.09s2.7-12.04-2.33-15.84Zm-9.29,12.24c-1.86-1.41-2.25-4.03-.86-5.87s4.02-2.18,5.88-.77,2.25,4.03,.86,5.87-4.02,2.18-5.88,.77Z"/>
        <path class="cls-3" d="M95.12,234.23c-4.31,1.36-8.62,2.72-12.92,4.08-1.24,.39-1.57-1.03-.58-2.45,17.15-24.59,34.3-49.18,51.45-73.78,.42-.6,.98-1.04,1.49-1.18,4.13-1.12,8.26-2.23,12.39-3.35,1.19-.32,1.49,1.08,.52,2.47-16.97,24.35-33.94,48.69-50.91,73.04-.4,.57-.93,1.01-1.43,1.16Z"/>
      </g>
    </g>
    <g id="wing">
      <path class="cls-12" d="M182.69,20.11c-2.52,1.08-6.36,3.09-10.1,6.73-4.2,4.08-6.4,8.38-7.51,11.02-.07,.07-.44,.43-1.03,.43-.37,0-.75-.14-1.03-.42-1.09-2.54-3.21-6.61-7.16-10.53s-8.04-6.01-10.59-7.08c-.07-.07-.43-.44-.43-1.03,0-.37,.14-.75,.42-1.03,2.54-1.09,6.61-3.21,10.53-7.16,1.95-1.96,4.93-5.45,7.08-10.59,.07-.07,.44-.43,1.03-.43,.37,0,.75,.14,1.03,.42,1.08,2.52,3.09,6.36,6.73,10.1,4.08,4.2,8.38,6.4,11.02,7.51,.07,.07,.43,.44,0,2.07Z"/>
      <path class="cls-12" d="M249.71,71.66c-4.19,1.68-10.58,4.85-16.89,10.7-7.07,6.56-10.86,13.55-12.79,17.85-.12,.11-.74,.69-1.72,.67-.62-.01-1.23-.26-1.69-.74-1.7-4.23-5.04-11-11.4-17.61-6.36-6.61-13-10.2-17.16-12.07-.11-.12-.69-.74-.67-1.72,.01-.62,.26-1.23,.74-1.69,4.23-1.7,11-5.04,17.61-11.4,3.28-3.16,8.32-8.79,12.07-17.16,.12-.11,.74-.69,1.72-.67,.62,.01,1.23,.26,1.69,.74,1.68,4.19,4.85,10.58,10.7,16.89,6.56,7.07,13.55,10.86,17.85,12.79,.11,.12,.69,.74-.07,3.4Z"/>
    </g>
  </g>
</svg>