<?xml version="1.0" encoding="UTF-8"?>
<svg id="Layer_2" data-name="Layer 2" xmlns="http://www.w3.org/2000/svg" viewBox="0 0 893 794">
  <defs>
    <style>
      .cls-1 {
        fill: #ed3f07;
      }

      .cls-2 {
        fill: #fff;
      }

      .cls-3 {
        fill: #e0e9f9;
        opacity: .34;
      }

      .cls-4, .cls-5, .cls-6 {
        fill: #3594dc;
      }

      .cls-5 {
        opacity: .44;
      }

      .cls-7 {
        fill: #f2763d;
      }

      .cls-6 {
        opacity: .51;
      }

      .cls-8 {
        fill: none;
        stroke: #f2763d;
        stroke-linecap: round;
        stroke-miterlimit: 10;
        stroke-width: 8px;
      }

      .cls-9 {
        fill: #4fb4f3;
      }

      .cls-10 {
        fill: red;
        opacity: .4;
      }
    </style>
  </defs>
  <g id="Layer_12" data-name="Layer 12">
    <g id="Layer_5" data-name="Layer 5">
      <circle id="BG" class="cls-3" cx="497.5" cy="398.5" r="395.5"/>
    </g>
    <g id="Layer_8" data-name="Layer 8">
      <g id="Layer_9" data-name="Layer 9">
        <g id="Layer_7" data-name="Layer 7">
          <path class="cls-9" d="M730.07,719.38c-26.7,17.43-157.72,98.99-320.07,60.62-85.39-20.18-143.95-65.14-174.22-92.51l35.47-549.86,553.75,36.36c-1,15.58-61.48,26.68-62.48,42.26-10.82,167.71-21.64,335.41-32.45,503.12Z"/>
          <path class="cls-4" d="M761.18,214.16c12.3-28.2,41.47-44.23,69.49-39.39,22.96,3.96,42.07,21.41,49.39,44.78l-4.22,93.11-118.88-5.38,4.22-93.11Z"/>
        </g>
        <rect class="cls-5" x="312" y="350" width="117" height="51" transform="translate(27.33 -25.13) rotate(4.03)"/>
        <rect class="cls-5" x="304.65" y="454.6" width="117" height="51" transform="translate(34.67 -24.35) rotate(4.03)"/>
        <rect class="cls-5" x="295.51" y="563.12" width="234.51" height="51" transform="translate(42.43 -27.58) rotate(4.03)"/>
        <rect class="cls-5" x="288.8" y="664.99" width="315.34" height="51" transform="translate(49.67 -29.69) rotate(4.03)"/>
      </g>
      <g id="Layer_10" data-name="Layer 10">
        <path class="cls-6" d="M806.55,371.11l-183.65-12.95c.62-23.02,1.24-46.04,1.86-69.06,3.16-9.8-8.79-17.38-16.31-10.35l-133.59,124.92c-.5,.75-4,6.24-1.95,12.05,2.14,6.09,9.52,10.12,17.55,8.59,14,1.07,28.01,2.14,42.01,3.2,1.07,.43,2.22,.7,3.43,.79l265.29,18.71c6.26,.44,11.7-4.28,12.14-10.54l3.75-53.22c.44-6.26-4.28-11.7-10.54-12.14Z"/>
        <path class="cls-2" d="M806.08,359.79l-183.65-12.95c.62-23.02,1.24-46.04,1.86-69.06,3.16-9.8-8.79-17.38-16.31-10.35l-133.59,124.92c-.5,.75-4,6.24-1.95,12.05,2.14,6.09,9.52,10.12,17.55,8.59,14,1.07,28.01,2.14,42.01,3.2,1.07,.43,2.22,.7,3.43,.79l265.29,18.71c6.26,.44,11.7-4.28,12.14-10.54l3.75-53.22c.44-6.26-4.28-11.7-10.54-12.14Z"/>
        <path class="cls-6" d="M475.85,535.07l183.65,12.95c-.62,23.02-1.24,46.04-1.86,69.06-3.16,9.8,8.79,17.38,16.31,10.35l133.59-124.92c.5-.75,4-6.24,1.95-12.05-2.14-6.09-9.52-10.12-17.55-8.59-14-1.07-28.01-2.14-42.01-3.2-1.07-.43-2.22-.7-3.43-.79l-265.29-18.71c-6.26-.44-11.7,4.28-12.14,10.54l-3.75,53.22c-.44,6.26,4.28,11.7,10.54,12.14Z"/>
        <path class="cls-2" d="M473.85,524.95l183.65,12.95c-.62,23.02-1.24,46.04-1.86,69.06-3.16,9.8,8.79,17.38,16.31,10.35l133.59-124.92c.5-.75,4-6.24,1.95-12.05-2.14-6.09-9.52-10.12-17.55-8.59-14-1.07-28.01-2.14-42.01-3.2-1.07-.43-2.22-.7-3.43-.79l-265.29-18.71c-6.26-.44-11.7,4.28-12.14,10.54l-3.75,53.22c-.44,6.26,4.28,11.7,10.54,12.14Z"/>
      </g>
    </g>
    <g id="_0" data-name="0">
      <circle class="cls-7" cx="238" cy="208" r="135"/>
      <ellipse class="cls-10" cx="245.5" cy="218.5" rx="57.5" ry="68.5"/>
      <path class="cls-1" d="M245.66,150.11c-31.76,0-57.5,30.67-57.5,68.5s25.74,68.5,57.5,68.5,57.5-30.67,57.5-68.5-25.74-68.5-57.5-68.5Zm1.5,107c-11.05,0-20-17.24-20-38.5s8.95-38.5,20-38.5,20,17.24,20,38.5-8.95,38.5-20,38.5Z"/>
      <path class="cls-2" d="M238.5,137c-31.76,0-57.5,30.67-57.5,68.5s25.74,68.5,57.5,68.5,57.5-30.67,57.5-68.5-25.74-68.5-57.5-68.5Zm1.5,107c-11.05,0-20-17.24-20-38.5s8.95-38.5,20-38.5,20,17.24,20,38.5-8.95,38.5-20,38.5Z"/>
    </g>
    <g id="Layer_11" data-name="Layer 11">
      <line class="cls-8" x1="100" y1="95" x2="32" y2="27"/>
      <line class="cls-8" x1="131" y1="4" x2="153" y2="64"/>
      <line class="cls-8" x1="4" y1="122" x2="75" y2="139"/>
    </g>
  </g>
</svg>