<?xml version="1.0" encoding="UTF-8"?>
<svg id="Layer_2" data-name="Layer 2" xmlns="http://www.w3.org/2000/svg" viewBox="0 0 1003 1243.5">
  <defs>
    <style>
      .cls-1, .cls-2 {
        fill: #ff8955;
      }

      .cls-3 {
        fill: #fff;
      }

      .cls-3, .cls-4, .cls-5, .cls-6, .cls-7, .cls-2, .cls-8, .cls-9, .cls-10, .cls-11, .cls-12, .cls-13 {
        stroke-miterlimit: 10;
      }

      .cls-3, .cls-4, .cls-9, .cls-12 {
        stroke: #ffa987;
      }

      .cls-3, .cls-9, .cls-12 {
        stroke-width: 3px;
      }

      .cls-4 {
        fill: #ffa987;
        stroke-width: 9px;
      }

      .cls-5 {
        stroke: #39b54a;
      }

      .cls-5, .cls-6, .cls-7, .cls-8, .cls-9, .cls-10, .cls-11, .cls-13 {
        fill: none;
      }

      .cls-5, .cls-7 {
        stroke-width: 7px;
      }

      .cls-6 {
        stroke: #ed1c24;
        stroke-width: 6px;
      }

      .cls-14 {
        fill: #f15a24;
      }

      .cls-7 {
        stroke: #ff9bff;
      }

      .cls-2 {
        stroke: #ff946a;
      }

      .cls-8 {
        stroke: aqua;
        stroke-width: 10px;
      }

      .cls-15, .cls-12 {
        fill: #ffefe9;
      }

      .cls-16 {
        fill: #f7f5ff;
      }

      .cls-10 {
        stroke: #00afff;
        stroke-width: 8px;
      }

      .cls-17 {
        fill: #f0f;
      }

      .cls-11, .cls-13 {
        stroke: #ff8955;
        stroke-width: 5px;
      }

      .cls-18 {
        fill: #29abe2;
      }

      .cls-13 {
        stroke-dasharray: 0 0 6.07 6.07;
      }
    </style>
  </defs>
  <g id="OPT">
    <g id="_บนๆ" data-name="บนๆ">
      <polygon class="cls-5" points="130.5 104 97.5 175 212.5 147 130.5 104"/>
      <path class="cls-10" d="M812.24,259.41c13.5-34.7,9.69-49.12,3.38-55.8-7.81-8.27-18.52-3.73-46.14-13.37-16.86-5.88-27.74-9.68-33.32-19.49-10.19-17.94,4.72-42.99,7.54-47.57"/>
      <polygon class="cls-6" points="927.76 274.17 964 271.5 925.7 230.53 927.76 274.17"/>
      <circle class="cls-8" cx="667" cy="36.5" r="31.5"/>
      <polygon class="cls-14" points="845.29 86.94 827.52 75.39 807.94 83.47 813.43 63.01 799.69 46.87 820.86 45.78 831.95 27.73 839.53 47.51 860.13 52.49 843.65 65.81 845.29 86.94"/>
      <polygon class="cls-18" points="252.73 204.19 236.21 202.58 225.51 215.27 221.95 199.06 206.57 192.8 220.89 184.4 222.08 167.85 234.49 178.87 250.61 174.89 243.97 190.1 252.73 204.19"/>
      <circle class="cls-17" cx="311" cy="46.5" r="10.5"/>
      <path class="cls-7" d="M476.42,82.67c19.83,13.29,29.22,13.37,34.13,10.79,6.07-3.2,4.57-10.1,13.92-24.52,5.7-8.8,9.38-14.48,16.14-16.14,12.35-3.04,26.04,9.53,28.53,11.89"/>
    </g>
    <g id="_เงาหลัง" data-name="เงาหลัง">
      <path class="cls-16" d="M132.49,514.35c-44.32,18.75-71.8,39.05-91.55,61.36-9.28,10.49-35.92,41.37-40.33,85.03-3.53,34.99,8.49,65.44,30.52,100.81,66.3,106.46,128.84,105.91,167.85,177.08,48.23,88.01-26.49,126.97,19.62,197.24,55.91,85.2,236.34,135.5,345.5,91.17,107.21-43.54,71.86-148.39,204.9-210.39,86.55-40.33,148.98-18.08,177.66-58.73,37.13-52.63-60.46-99.88-65.39-204.26-6.48-136.93,154.96-193.35,115.53-290.17-19.8-48.62-84.05-92.18-137.33-88.54-74.09,5.07-89.14,98.85-189.64,117.47-34.56,6.4-48.59-1.76-112.26-11.4-49.06-7.43-261.31-35.97-425.07,33.31Z"/>
    </g>
    <g id="_จรวจกระดาษ" data-name="จรวจกระดาษ">
      <polygon class="cls-2" points="597.33 452.5 492.83 503 525.83 516 557.33 494.5 532.5 520 532.83 554 558.83 530 591.25 543.23 597.33 452.5"/>
    </g>
    <g id="_เส้น" data-name="เส้น">
      <g>
        <path class="cls-15" d="M468.88,718c-5.12-48.99,4.09-70.74,13.38-81.55,16.57-19.29,38.19-9.32,57.03-30.14,15.61-17.24,19.09-44.35,19.71-63.82"/>
        <g>
          <path class="cls-11" d="M468.88,718c-.11-1.01-.2-2-.3-2.99"/>
          <path class="cls-13" d="M468.08,708.96c-3.14-42.68,5.49-62.39,14.18-72.51,16.57-19.29,38.19-9.32,57.03-30.14,14.05-15.53,18.28-39.05,19.43-57.8"/>
          <path class="cls-11" d="M558.88,545.5c.05-1.02,.09-2.02,.12-3"/>
        </g>
      </g>
    </g>
    <g id="_ซองจดหมาย" data-name="ซองจดหมาย">
      <g id="_กรอบทั้งหมด" data-name="กรอบทั้งหมด">
        <rect class="cls-3" x="231.5" y="259" width="527" height="767" rx="55.01" ry="55.01"/>
        <rect id="_Rectangleใน_" data-name="&amp;lt;Rectangleใน&amp;gt;" class="cls-12" x="285.5" y="375" width="419" height="576" rx="13.45" ry="13.45"/>
        <rect class="cls-4" x="421.5" y="302" width="157" height="19" rx="9.5" ry="9.5"/>
      </g>
      <polyline class="cls-12" points="609 655.5 609 784.5 383 784.5 383 655.5"/>
      <path class="cls-12" d="M390.16,782.5h-3.16c26.62-23.91,53.24-47.81,79.86-71.72"/>
      <path class="cls-12" d="M524.67,712.85c27.11,23.22,54.22,46.44,81.33,69.65h-2.02"/>
      <path class="cls-12" d="M383,656.5c37-32.33,74-64.67,111-97,38.33,32.33,76.67,64.67,115,97"/>
      <path id="_ในซอง" data-name="ในซอง" class="cls-12" d="M421,680.96c0-34.82,0-69.64,0-104.46h155v102.55"/>
      <path id="_พับล่าง_" data-name="&amp;lt;พับล่าง&amp;gt;" class="cls-9" d="M383,655.5c37,27.36,76.8,48.64,113.8,76,38.33-27.36,73.87-48.64,112.2-76"/>
    </g>
    <g id="_ดอกจันทร์1" data-name="ดอกจันทร์1">
      <path class="cls-1" d="M491.64,646.44h0c-.75-.67-.75-1.77,0-2.44l14.81-13.26c.75-.67,1.98-.67,2.73,0h0c.75,.67,.75,1.77,0,2.44l-14.81,13.26c-.75,.67-1.98,.67-2.73,0Z"/>
      <path class="cls-1" d="M491.7,646.45h0c-.75-.67-.75-1.77,0-2.44l14.81-13.26c.75-.67,1.98-.67,2.73,0h0c.75,.67,.75,1.77,0,2.44l-14.81,13.26c-.75,.67-1.98,.67-2.73,0Z"/>
      <rect class="cls-1" x="498.74" y="626.2" width="3.45" height="24.81" rx="1.73" ry="1.73" transform="translate(1139.07 138.13) rotate(90)"/>
      <path class="cls-1" d="M491.7,630.75h0c.75-.67,1.98-.67,2.73,0l14.81,13.26c.75,.67,.75,1.77,0,2.44h0c-.75,.67-1.98,.67-2.73,0l-14.81-13.26c-.75-.67-.75-1.77,0-2.44Z"/>
      <rect class="cls-1" x="498.54" y="627.5" width="3.85" height="22.2" rx="1.93" ry="1.93" transform="translate(1000.94 1277.2) rotate(180)"/>
      <path class="cls-1" d="M457.58,646.7h0c-.75-.67-.75-1.77,0-2.44l14.81-13.26c.75-.67,1.98-.67,2.73,0h0c.75,.67,.75,1.77,0,2.44l-14.81,13.26c-.75,.67-1.98,.67-2.73,0Z"/>
      <path class="cls-1" d="M457.63,646.71h0c-.75-.67-.75-1.77,0-2.44l14.81-13.26c.75-.67,1.98-.67,2.73,0h0c.75,.67,.75,1.77,0,2.44l-14.81,13.26c-.75,.67-1.98,.67-2.73,0Z"/>
      <rect class="cls-1" x="464.68" y="626.46" width="3.45" height="24.81" rx="1.73" ry="1.73" transform="translate(1105.26 172.46) rotate(90)"/>
      <path class="cls-1" d="M457.63,631.01h0c.75-.67,1.98-.67,2.73,0l14.81,13.26c.75,.67,.75,1.77,0,2.44h0c-.75,.67-1.98,.67-2.73,0l-14.81-13.26c-.75-.67-.75-1.77,0-2.44Z"/>
      <rect class="cls-1" x="464.48" y="627.76" width="3.85" height="22.2" rx="1.93" ry="1.93" transform="translate(932.81 1277.72) rotate(180)"/>
      <path class="cls-1" d="M525.77,646.83h0c-.75-.67-.75-1.77,0-2.44l14.81-13.26c.75-.67,1.98-.67,2.73,0h0c.75,.67,.75,1.77,0,2.44l-14.81,13.26c-.75,.67-1.98,.67-2.73,0Z"/>
      <path class="cls-1" d="M525.83,646.84h0c-.75-.67-.75-1.77,0-2.44l14.81-13.26c.75-.67,1.98-.67,2.73,0h0c.75,.67,.75,1.77,0,2.44l-14.81,13.26c-.75,.67-1.98,.67-2.73,0Z"/>
      <rect class="cls-1" x="532.87" y="626.59" width="3.45" height="24.81" rx="1.73" ry="1.73" transform="translate(1173.59 104.39) rotate(90)"/>
      <path class="cls-1" d="M525.83,631.14h0c.75-.67,1.98-.67,2.73,0l14.81,13.26c.75,.67,.75,1.77,0,2.44h0c-.75,.67-1.98,.67-2.73,0l-14.81-13.26c-.75-.67-.75-1.77,0-2.44Z"/>
      <rect class="cls-1" x="532.67" y="627.89" width="3.85" height="22.2" rx="1.93" ry="1.93" transform="translate(1069.2 1277.98) rotate(180)"/>
    </g>
  </g>
</svg>