<?xml version="1.0" encoding="UTF-8"?>
<svg id="Layer_2" data-name="Layer 2" xmlns="http://www.w3.org/2000/svg" viewBox="0 0 1003 1243.5">
  <defs>
    <style>
      .cls-1, .cls-2 {
        fill: #ff8955;
      }

      .cls-3 {
        fill: #fff;
      }

      .cls-3, .cls-4, .cls-5, .cls-6, .cls-7, .cls-2, .cls-8, .cls-9, .cls-10, .cls-11, .cls-12 {
        stroke-miterlimit: 10;
      }

      .cls-3, .cls-4, .cls-11 {
        stroke: #ffa987;
      }

      .cls-3, .cls-11 {
        stroke-width: 3px;
      }

      .cls-4 {
        fill: #ffa987;
        stroke-width: 9px;
      }

      .cls-5 {
        stroke: #39b54a;
      }

      .cls-5, .cls-6, .cls-7, .cls-8, .cls-9, .cls-10, .cls-12 {
        fill: none;
      }

      .cls-5, .cls-7 {
        stroke-width: 7px;
      }

      .cls-6 {
        stroke: #ed1c24;
        stroke-width: 6px;
      }

      .cls-13 {
        fill: #f15a24;
      }

      .cls-7 {
        stroke: #ff9bff;
      }

      .cls-2 {
        stroke: #ff946a;
      }

      .cls-8 {
        stroke: aqua;
        stroke-width: 10px;
      }

      .cls-14, .cls-11 {
        fill: #ffefe9;
      }

      .cls-15 {
        fill: #f7f5ff;
      }

      .cls-9 {
        stroke: #00afff;
        stroke-width: 8px;
      }

      .cls-16 {
        fill: #f0f;
      }

      .cls-10, .cls-12 {
        stroke: #ff8955;
        stroke-width: 5px;
      }

      .cls-17 {
        fill: #29abe2;
      }

      .cls-12 {
        stroke-dasharray: 0 0 6.07 6.07;
      }
    </style>
  </defs>
  <g id="OPT">
    <g id="_บนๆ" data-name="บนๆ">
      <polygon class="cls-5" points="130.5 104 97.5 175 212.5 147 130.5 104"/>
      <path class="cls-9" d="M812.24,259.41c13.5-34.7,9.69-49.12,3.38-55.8-7.81-8.27-18.52-3.73-46.14-13.37-16.86-5.88-27.74-9.68-33.32-19.49-10.19-17.94,4.72-42.99,7.54-47.57"/>
      <polygon class="cls-6" points="927.76 274.17 964 271.5 925.7 230.53 927.76 274.17"/>
      <circle class="cls-8" cx="667" cy="36.5" r="31.5"/>
      <polygon class="cls-13" points="845.29 86.94 827.52 75.39 807.94 83.47 813.43 63.01 799.69 46.87 820.86 45.78 831.95 27.73 839.53 47.51 860.13 52.49 843.65 65.81 845.29 86.94"/>
      <polygon class="cls-17" points="252.73 204.19 236.21 202.58 225.51 215.27 221.95 199.06 206.57 192.8 220.89 184.4 222.08 167.85 234.49 178.87 250.61 174.89 243.97 190.1 252.73 204.19"/>
      <circle class="cls-16" cx="311" cy="46.5" r="10.5"/>
      <path class="cls-7" d="M476.42,82.67c19.83,13.29,29.22,13.37,34.13,10.79,6.07-3.2,4.57-10.1,13.92-24.52,5.7-8.8,9.38-14.48,16.14-16.14,12.35-3.04,26.04,9.53,28.53,11.89"/>
    </g>
    <g id="_เงาหลัง" data-name="เงาหลัง">
      <path class="cls-15" d="M132.49,514.35c-44.32,18.75-71.8,39.05-91.55,61.36-9.28,10.49-35.92,41.37-40.33,85.03-3.53,34.99,8.49,65.44,30.52,100.81,66.3,106.46,128.84,105.91,167.85,177.08,48.23,88.01-26.49,126.97,19.62,197.24,55.91,85.2,236.34,135.5,345.5,91.17,107.21-43.54,71.86-148.39,204.9-210.39,86.55-40.33,148.98-18.08,177.66-58.73,37.13-52.63-60.46-99.88-65.39-204.26-6.48-136.93,154.96-193.35,115.53-290.17-19.8-48.62-84.05-92.18-137.33-88.54-74.09,5.07-89.14,98.85-189.64,117.47-34.56,6.4-48.59-1.76-112.26-11.4-49.06-7.43-261.31-35.97-425.07,33.31Z"/>
    </g>
    <g id="_จรวจกระดาษ" data-name="จรวจกระดาษ">
      <rect class="cls-3" x="231.5" y="259" width="527" height="767" rx="55.01" ry="55.01"/>
      <rect id="_Rectangleใน_" data-name="&amp;lt;Rectangleใน&amp;gt;" class="cls-11" x="285.5" y="375" width="419" height="576" rx="13.45" ry="13.45"/>
      <rect class="cls-4" x="421.5" y="302" width="157" height="19" rx="9.5" ry="9.5"/>
      <polygon class="cls-2" points="597.33 452.5 492.83 503 525.83 516 557.33 494.5 532.5 520 532.83 554 558.83 530 591.25 543.23 597.33 452.5"/>
    </g>
    <g id="_เส้น" data-name="เส้น">
      <g id="_ดอกจันทร์1" data-name="ดอกจันทร์1">
        <rect class="cls-1" x="462.86" y="754.39" width="6.06" height="39" rx="3.03" ry="3.03" transform="translate(683.68 -102.77) rotate(45)"/>
        <rect class="cls-1" x="462.95" y="754.41" width="6.06" height="39" rx="3.03" ry="3.03" transform="translate(683.72 -102.83) rotate(45)"/>
        <rect class="cls-1" x="462.95" y="754.41" width="6.06" height="39" rx="3.03" ry="3.03" transform="translate(1239.89 307.92) rotate(90)"/>
        <rect class="cls-1" x="462.95" y="754.41" width="6.06" height="39" rx="3.03" ry="3.03" transform="translate(1342.72 991.64) rotate(135)"/>
        <rect class="cls-1" x="462.95" y="754.41" width="6.06" height="39" rx="3.03" ry="3.03" transform="translate(931.97 1547.81) rotate(180)"/>
        <rect class="cls-1" x="409.3" y="754.85" width="6.06" height="39" rx="3.03" ry="3.03" transform="translate(668.32 -64.76) rotate(45)"/>
        <rect class="cls-1" x="409.39" y="754.86" width="6.06" height="39" rx="3.03" ry="3.03" transform="translate(668.35 -64.82) rotate(45)"/>
        <rect class="cls-1" x="409.39" y="754.86" width="6.06" height="39" rx="3.03" ry="3.03" transform="translate(1186.79 361.94) rotate(90)"/>
        <rect class="cls-1" x="409.39" y="754.86" width="6.06" height="39" rx="3.03" ry="3.03" transform="translate(1251.61 1030.29) rotate(135)"/>
        <rect class="cls-1" x="409.39" y="754.86" width="6.06" height="39" rx="3.03" ry="3.03" transform="translate(824.85 1548.73) rotate(180)"/>
        <rect class="cls-1" x="570.08" y="754.62" width="6.06" height="39" rx="3.03" ry="3.03" transform="translate(715.25 -178.52) rotate(45)"/>
        <rect class="cls-1" x="570.17" y="754.64" width="6.06" height="39" rx="3.03" ry="3.03" transform="translate(715.28 -178.58) rotate(45)"/>
        <rect class="cls-1" x="570.17" y="754.64" width="6.06" height="39" rx="3.03" ry="3.03" transform="translate(1347.34 200.93) rotate(90)"/>
        <rect class="cls-1" x="570.17" y="754.64" width="6.06" height="39" rx="3.03" ry="3.03" transform="translate(1525.92 916.22) rotate(135)"/>
        <rect class="cls-1" x="570.17" y="754.64" width="6.06" height="39" rx="3.03" ry="3.03" transform="translate(1146.41 1548.27) rotate(180)"/>
        <rect class="cls-1" x="516.52" y="755.08" width="6.06" height="39" rx="3.03" ry="3.03" transform="translate(699.88 -140.51) rotate(45)"/>
        <rect class="cls-1" x="516.61" y="755.09" width="6.06" height="39" rx="3.03" ry="3.03" transform="translate(699.92 -140.57) rotate(45)"/>
        <rect class="cls-1" x="516.61" y="755.09" width="6.06" height="39" rx="3.03" ry="3.03" transform="translate(1294.24 254.95) rotate(90)"/>
        <rect class="cls-1" x="516.61" y="755.09" width="6.06" height="39" rx="3.03" ry="3.03" transform="translate(1434.81 954.87) rotate(135)"/>
        <rect class="cls-1" x="516.61" y="755.09" width="6.06" height="39" rx="3.03" ry="3.03" transform="translate(1039.29 1549.19) rotate(180)"/>
      </g>
      <g>
        <path class="cls-14" d="M468.88,718c-5.12-48.99,4.09-70.74,13.38-81.55,16.57-19.29,38.19-9.32,57.03-30.14,15.61-17.24,19.09-44.35,19.71-63.82"/>
        <g>
          <path class="cls-10" d="M468.88,718c-.11-1.01-.2-2-.3-2.99"/>
          <path class="cls-12" d="M468.08,708.96c-3.14-42.68,5.49-62.39,14.18-72.51,16.57-19.29,38.19-9.32,57.03-30.14,14.05-15.53,18.28-39.05,19.43-57.8"/>
          <path class="cls-10" d="M558.88,545.5c.05-1.02,.09-2.02,.12-3"/>
        </g>
      </g>
    </g>
  </g>
</svg>