<?xml version="1.0" encoding="UTF-8"?>
<svg id="Layer_2" data-name="Layer 2" xmlns="http://www.w3.org/2000/svg" viewBox="0 0 25.76 33.42">
  <defs>
    <style>
      .cls-1 {
        opacity: .7;
      }

      .cls-2 {
        fill: none;
        stroke: #a37c52;
        stroke-linecap: round;
        stroke-linejoin: round;
        stroke-width: 2px;
      }
    </style>
  </defs>
  <g id="Layer_1-2" data-name="Layer 1">
    <g class="cls-1">
      <path class="cls-2" d="M7.45,3.25c-1.45,1.45-2.25,3.38-2.25,5.43,0,4.24,3.45,7.68,7.69,7.68h0c2.05,0,3.98-.8,5.43-2.25,1.45-1.45,2.25-3.38,2.25-5.43,0-4.24-3.45-7.68-7.69-7.68-2.05,0-3.98,.8-5.43,2.25Z"/>
      <path class="cls-2" d="M2.24,32.42H23.52c.67,0,1.22-.54,1.24-1.2,.01-.33,.21-8.25-4.77-12.81-.44-.41-1.12-.44-1.59-.07-.06,.04-5.56,4.18-10.68,.01-.47-.38-1.14-.37-1.6,.03-.2,.18-5,4.44-5.12,12.79,0,.33,.12,.65,.36,.89,.23,.24,.55,.37,.88,.37Z"/>
    </g>
  </g>
</svg>