<?xml version="1.0" encoding="UTF-8"?>
<svg id="Layer_2" data-name="Layer 2" xmlns="http://www.w3.org/2000/svg" viewBox="0 0 13.25 13.44">
  <defs>
    <style>
      .cls-1 {
        fill: #f9c016;
      }
    </style>
  </defs>
  <g id="Layer_1-2" data-name="Layer 1">
    <path id="star" class="cls-1" d="M9.36,3.09c.09,.06,1.42,.69,2.32,1.31s1.58,1.26,1.58,1.89-.51,.9-.75,1.02-1.64,.64-1.94,.81-.29,.18-.42,.51-.87,2.25-1.63,3.56c-.76,1.31-1.24,1.28-1.52,1.26-.3-.02-.87-.22-1.34-.93s-1.15-2.03-1.84-2.31-1.63,.04-2.11,.17c-.25,.07-.81,.09-1.12-.22s-.46-.89-.27-1.86c.2-.96,.67-2.27,.71-2.39s.05-.25-.22-.55S.06,4.24,0,3.64s.62-.96,1.34-1.16,2.25-.43,2.45-.46c.44-.37,1.75-1.49,2.96-1.85s1.6-.16,1.93,.56,.58,2.06,.6,2.18c0,.04,.03,.14,.08,.17Z"/>
  </g>
</svg>