<?xml version="1.0" encoding="UTF-8"?>
<svg id="Layer_2" data-name="Layer 2" xmlns="http://www.w3.org/2000/svg" viewBox="0 0 213.43 223.13">
  <defs>
    <style>
      .cls-1 {
        fill: #ffdbb2;
      }

      .cls-2 {
        fill: #eeb11e;
      }

      .cls-3 {
        fill: #623c21;
      }
    </style>
  </defs>
  <g id="Layer_1-2" data-name="Layer 1">
    <g>
      <ellipse class="cls-2" cx="94.45" cy="214.91" rx="94.45" ry="8.22"/>
      <g>
        <path class="cls-3" d="M150.71,49.72c1.4,1.04,22.92,11.05,37.3,21.02,14.37,9.98,25.42,20.31,25.42,30.41s-8.2,14.49-12.12,16.39c-3.92,1.9-26.49,10.33-31.24,13.07-4.75,2.73-4.75,2.85-6.77,8.2-2.02,5.35-14.06,36.27-26.25,57.33-12.19,21.06-19.98,20.56-24.55,20.27-4.89-.31-14.1-3.48-21.54-15.05-7.44-11.56-18.53-32.63-29.62-37.22-11.09-4.59-26.24,.58-33.93,2.69-4.06,1.12-13.11,1.43-18.02-3.48s-7.44-14.41-4.28-29.93c3.17-15.52,10.77-36.58,11.4-38.48,.63-1.9,.79-3.96-3.48-8.87C8.77,81.16,1.01,68.33,.06,58.67c-.95-9.66,9.98-15.52,21.54-18.69,11.56-3.17,36.27-6.97,39.44-7.44,7.13-6.02,28.19-24.07,47.67-29.77,19.48-5.7,25.82-2.53,31.04,9.03,5.23,11.56,9.28,33.19,9.66,35.16,.13,.65,.53,2.2,1.31,2.77Z"/>
        <g>
          <path class="cls-1" d="M85.54,65.71c1.39,0,2.51-1.12,2.51-2.51s-1.12-2.51-2.51-2.51-2.51,1.12-2.51,2.51,1.12,2.51,2.51,2.51Z"/>
          <path class="cls-1" d="M188.01,70.75c-14.37-9.98-35.9-19.99-37.3-21.02-.78-.58-1.18-2.12-1.31-2.77-.38-1.97-4.43-23.6-9.66-35.16-5.23-11.56-11.56-14.73-31.04-9.03-19.48,5.7-40.54,23.76-47.67,29.77-3.17,.48-27.87,4.28-39.44,7.44C10.04,43.15-.89,49.01,.06,58.67c.95,9.66,8.71,22.49,12.99,27.4,4.28,4.91,4.12,6.97,3.48,8.87-.63,1.9-8.24,22.96-11.4,38.48-3.17,15.52-.63,25.02,4.28,29.93,4.91,4.91,13.96,4.6,18.02,3.48,7.69-2.12,22.85-7.29,33.93-2.69,11.09,4.59,22.17,25.66,29.62,37.22,7.44,11.56,16.65,14.74,21.54,15.05,4.57,.29,12.35,.79,24.55-20.27,12.19-21.06,24.23-51.99,26.25-57.33,2.02-5.35,2.02-5.46,6.77-8.2,4.75-2.73,27.32-11.17,31.24-13.07,3.92-1.9,12.12-6.3,12.12-16.39s-11.05-20.43-25.42-30.41ZM48.04,154.54c-8.53-.62-19.22,5.83-23.79,5.53-5.23-.35-7.4-3.18-10.21-6.71-2.63-3.31-1.38-4.06,2.03-4.48,25.49-2.04,35.44,2.41,40.95,7.65-.36-.3-2.19-1.5-8.98-2Zm18.5-87.87c0-7.06,5.72-12.78,12.78-12.78s12.78,5.72,12.78,12.78-5.72,12.78-12.78,12.78-12.78-5.72-12.78-12.78Zm39.3,33.52c-2.16,5.67-7.69,9.47-13.75,9.47-8.12,0-14.72-6.6-14.72-14.72,0-1,.1-2,.3-2.96,.28-1.37,1.61-2.25,2.99-1.97,1.37,.28,2.25,1.62,1.97,2.99-.13,.63-.2,1.29-.2,1.95,0,5.32,4.33,9.66,9.66,9.66,3.98,0,7.61-2.5,9.02-6.21,.5-1.31,1.96-1.96,3.27-1.46,1.31,.5,1.96,1.96,1.46,3.27Zm36.31-6.88c-2.25,0-3.52-2.91-8.89-5.3,.76-.45,1.27-1.26,1.27-2.2,0-1.41-1.15-2.56-2.56-2.56s-2.56,1.15-2.56,2.56c0,.29,.06,.57,.15,.83-4.29-1.35-7.99-1.73-18.64-.76,0,0,7.94-7.97,20.96-7.97,11.2,0,13.98,8.63,13.98,11.11,0,1.8-1.19,4.3-3.7,4.3Zm64.01,7.85c-.41,3.37-3.02,13.38-34.6,21.01,15.67-5.02,31.03-18.04,29.4-30.5,4.41,3.44,5.61,6.13,5.2,9.49Z"/>
        </g>
      </g>
    </g>
  </g>
</svg>